<?xml version="1.0" encoding="utf-8"?>
<!-- Generator: Adobe Illustrator 16.0.3, SVG Export Plug-In . SVG Version: 6.00 Build 0)  -->
<!DOCTYPE svg PUBLIC "-//W3C//DTD SVG 1.1//EN" "http://www.w3.org/Graphics/SVG/1.1/DTD/svg11.dtd">
<svg version="1.1" id="Layer_1" xmlns="http://www.w3.org/2000/svg" xmlns:xlink="http://www.w3.org/1999/xlink" x="0px" y="0px"
	 width="50px" height="50px" viewBox="0 0 50 50" enable-background="new 0 0 50 50" xml:space="preserve">
<path fill="#81C625" d="M25,0C11.205,0,0,11.205,0,25c0,7.979,3.763,15.077,9.594,19.656c0.285,0.225,0.58,0.443,0.875,0.656
	c0.084,0.063,0.164,0.127,0.25,0.188c0.125,0.087,0.249,0.165,0.375,0.25c0.267,0.182,0.535,0.357,0.813,0.531
	c0.064,0.039,0.123,0.086,0.188,0.125c0.116,0.07,0.226,0.148,0.344,0.219c0.211,0.123,0.441,0.227,0.656,0.344
	c0.35,0.191,0.7,0.385,1.063,0.563c0.369,0.183,0.744,0.338,1.125,0.5c3.125,1.348,6.641,2.156,10.281,2.156
	c1.896,0,3.838-0.387,5.688-0.971c3.748-0.966,7.146-2.805,10-5.25c0.118-0.094,0.209-0.16,0.313-0.25
	c0.063-0.055,0.127-0.102,0.188-0.154c0.022-0.021,0.04-0.041,0.063-0.063c0.121-0.107,0.226-0.23,0.344-0.346
	C46.98,38.598,50,32.152,50,25C50,11.205,38.795,0,25,0z"/>
<circle fill="#FFFFFF" cx="25" cy="25" r="23"/>
<g>
	<path fill="#81C625" d="M9.574,18.463v2.42h3.261c-0.289,2.172,0.122,4.516,1.104,6.734l-3.077,1.025l0.789,2.262l3.472-1.157
		c0.584,0.892,1.237,1.765,2.024,2.551c0.287,0.288,0.568,0.558,0.87,0.815l-2.552,2.553l1.683,1.684l2.841-2.842
		c1.083,0.674,2.189,1.244,3.342,1.605l-0.632,4.418l2.368,0.367l0.631-4.313c3.094,0.367,6.11-0.43,8.286-2.605
		c2.175-2.174,2.972-5.19,2.603-8.283l4.313-0.632l-0.367-2.366l-4.418,0.631c-0.362-1.152-0.932-2.26-1.605-3.342l2.84-2.84
		l-1.683-1.683l-2.551,2.551c-0.261-0.301-0.529-0.582-0.816-0.869c-0.786-0.788-1.659-1.441-2.552-2.024l1.159-3.473l-2.263-0.788
		l-1.025,3.077c-2.219-0.981-4.562-1.394-6.734-1.104V9.574h-2.42l-0.001,3.894c-1.105,0.447-2.116,1.118-2.997,1.999
		c-0.881,0.881-1.552,1.893-2,2.998L9.574,18.463z"/>
	<path fill="#FFFFFF" d="M17.15,17.147c1.665-1.665,4.143-2.3,6.732-1.892c-0.524,1.384-1.514,3.408-3.365,5.259
		c-1.852,1.852-3.877,2.843-5.261,3.368C14.849,21.29,15.484,18.813,17.15,17.147z"/>
	<path fill="#DFF1C8" d="M15.887,26.143c1.426-0.513,3.456-1.464,5.418-3.155l10.074,10.075c-3.305,2.252-8.649,1.447-12.546-2.449
		C17.472,29.252,16.495,27.709,15.887,26.143z"/>
	<path fill="#DFF1C8" d="M26.145,15.885c1.566,0.608,3.11,1.585,4.472,2.946c3.896,3.896,4.7,9.241,2.446,12.547L22.988,21.304
		C24.679,19.341,25.631,17.313,26.145,15.885z"/>
</g>
</svg>
