<?xml version="1.0" encoding="utf-8"?>
<!-- Generator: Adobe Illustrator 16.0.3, SVG Export Plug-In . SVG Version: 6.00 Build 0)  -->
<!DOCTYPE svg PUBLIC "-//W3C//DTD SVG 1.1//EN" "http://www.w3.org/Graphics/SVG/1.1/DTD/svg11.dtd">
<svg version="1.1" id="Layer_1" xmlns="http://www.w3.org/2000/svg" xmlns:xlink="http://www.w3.org/1999/xlink" x="0px" y="0px"
	 width="120px" height="120px" viewBox="0 0 120 120" enable-background="new 0 0 120 120" xml:space="preserve">
<path fill="#0D519B" d="M32.461,11.25c-1.963,0-3.904,0.709-5.508,1.992l-0.234,0.117l-0.117,0.117l-11.719,12.07L15,25.664
	C11.387,29.007,10.265,34,11.836,38.32c0.008,0.023-0.008,0.094,0,0.117c3.176,9.104,11.314,26.667,27.188,42.54
	c15.936,15.936,33.738,23.744,42.539,27.188h0.117c4.562,1.521,9.49,0.438,13.008-2.578l0.117-0.117l0.117-0.117l11.602-11.602
	c3.112-3.111,3.112-8.488,0-11.602L91.289,66.914l-0.117-0.234c-3.111-3.111-8.605-3.111-11.719,0l-0.117,0.117l-7.383,7.383
	c-2.711-1.297-9.174-4.65-15.352-10.547c-6.134-5.855-9.277-12.591-10.43-15.234l7.5-7.5c3.157-3.157,3.205-8.388-0.117-11.484
	l0.117-0.117l-0.352-0.352l-15-15.469l-0.117-0.117l-0.234-0.117C36.365,11.959,34.424,11.25,32.461,11.25z"/>
<path fill="#C2D3E6" d="M32.461,18.75c0.275,0,0.549,0.135,0.82,0.352l15,15.352l0.234,0.234l0.117,0.117
	c-0.03-0.023,0.227,0.359-0.234,0.82L39.023,45l-1.758,1.641l0.82,2.344c0,0,4.313,11.521,13.359,20.156l0.82,0.703
	c8.71,7.957,18.984,12.305,18.984,12.305l2.344,1.056l1.758-1.759l9.375-9.375c0.639-0.637,0.534-0.637,1.172,0l15.353,15.353
	c0.638,0.638,0.638,0.417,0,1.056L89.766,99.961c-1.731,1.484-3.553,1.784-5.742,1.055c-8.502-3.338-25.011-10.598-39.727-25.313
	c-14.836-14.836-22.589-31.677-25.43-39.844c-0.572-1.525-0.158-3.782,1.172-4.922l0.117-0.117l0.117-0.117L31.64,19.101
	C31.912,18.885,32.186,18.75,32.461,18.75z"/>
</svg>
