<?xml version="1.0" encoding="utf-8"?>
<!-- Generator: Adobe Illustrator 16.0.3, SVG Export Plug-In . SVG Version: 6.00 Build 0)  -->
<!DOCTYPE svg PUBLIC "-//W3C//DTD SVG 1.1//EN" "http://www.w3.org/Graphics/SVG/1.1/DTD/svg11.dtd">
<svg version="1.1" id="Layer_1" xmlns="http://www.w3.org/2000/svg" xmlns:xlink="http://www.w3.org/1999/xlink" x="0px" y="0px"
	 width="120px" height="120px" viewBox="0 0 120 120" enable-background="new 0 0 120 120" xml:space="preserve">
<path fill="#0D519B" d="M15,22.5v3.75V82.5v3.75h3.75h3.75V90c0,8.287,6.713,15,15,15s15-6.713,15-15v-3.75h48.75H105V82.5V26.25
	V22.5h-3.75h-52.5H45v3.75V82.5v3.75V90c0,4.463-3.037,7.5-7.5,7.5S30,94.463,30,90v-3.75h3.75h3.75V82.5V26.25V22.5h-3.75h-15H15z"
	/>
<rect x="22.5" y="30" fill="#C2D3E6" width="7.5" height="48.75"/>
<rect x="52.5" y="30" fill="#C2D3E6" width="45" height="48.75"/>
<rect x="60" y="37.5" fill="#0D519B" width="30" height="7.5"/>
<rect x="60" y="52.5" fill="#0D519B" width="7.5" height="7.5"/>
<rect x="71.25" y="52.5" fill="#0D519B" width="7.5" height="7.5"/>
<rect x="82.5" y="52.5" fill="#0D519B" width="7.5" height="7.5"/>
<rect x="60" y="63.75" fill="#0D519B" width="7.5" height="7.5"/>
<rect x="71.25" y="63.75" fill="#0D519B" width="7.5" height="7.5"/>
<rect x="82.5" y="63.75" fill="#0D519B" width="7.5" height="7.5"/>
</svg>
