<?xml version="1.0" encoding="utf-8"?>
<!-- Generator: Adobe Illustrator 16.0.3, SVG Export Plug-In . SVG Version: 6.00 Build 0)  -->
<!DOCTYPE svg PUBLIC "-//W3C//DTD SVG 1.1//EN" "http://www.w3.org/Graphics/SVG/1.1/DTD/svg11.dtd">
<svg version="1.1" id="Layer_1" xmlns="http://www.w3.org/2000/svg" xmlns:xlink="http://www.w3.org/1999/xlink" x="0px" y="0px"
	 width="120px" height="120px" viewBox="0 0 120 120" enable-background="new 0 0 120 120" xml:space="preserve">
<path fill="#0D519B" d="M67.32,16.508c-0.688,0.009-1.385,0.035-2.084,0.126c-1.397,0.182-2.926,0.652-4.105,1.832L15.202,64.395
	c-2.269,2.266-2.269,6.012,0,8.276l35.125,35.125c2.266,2.267,6.01,2.267,8.276,0l45.928-45.929c1.171-1.17,1.65-2.713,1.832-4.105
	c0.182-1.394,0.128-2.767,0.128-4.107V23.583c0-3.884-3.19-7.075-7.077-7.075H69.343C68.688,16.508,68.008,16.499,67.32,16.508z"/>
<path fill="#C2D3E6" d="M67.384,20.551c0.597-0.017,1.269,0,1.959,0h30.071c1.699,0,3.031,1.333,3.031,3.032v30.072
	c0,1.409-0.006,2.678-0.127,3.601c-0.118,0.923-0.312,1.385-0.631,1.706l-45.928,45.99c-0.718,0.72-1.872,0.72-2.59,0l-0.253-0.315
	l-34.873-34.81c-0.72-0.72-0.72-1.871,0-2.591l45.993-45.927c0.311-0.312,0.835-0.51,1.77-0.632
	C66.271,20.617,66.789,20.567,67.384,20.551z"/>
<path fill="#4A7DB4" d="M88.295,26.616c-4.441,0-8.086,3.644-8.086,8.086c0,4.443,3.645,8.087,8.086,8.087s8.087-3.644,8.087-8.087
	C96.382,30.26,92.736,26.616,88.295,26.616z"/>
<path fill="#FFFFFF" d="M88.295,30.658c2.258,0,4.044,1.787,4.044,4.043c0,2.257-1.786,4.044-4.044,4.044
	c-2.257,0-4.043-1.787-4.043-4.044C84.252,32.445,86.038,30.658,88.295,30.658z"/>
</svg>
