<?xml version="1.0" encoding="utf-8"?>
<!-- Generator: Adobe Illustrator 16.0.3, SVG Export Plug-In . SVG Version: 6.00 Build 0)  -->
<!DOCTYPE svg PUBLIC "-//W3C//DTD SVG 1.1//EN" "http://www.w3.org/Graphics/SVG/1.1/DTD/svg11.dtd">
<svg version="1.1" id="Layer_1" xmlns="http://www.w3.org/2000/svg" xmlns:xlink="http://www.w3.org/1999/xlink" x="0px" y="0px"
	 width="50px" height="50px" viewBox="0 0 50 50" enable-background="new 0 0 50 50" xml:space="preserve">
<path fill="#81C625" d="M25,0C11.205,0,0,11.205,0,25c0,7.979,3.763,15.077,9.594,19.656c0.285,0.225,0.58,0.443,0.875,0.656
	c0.084,0.063,0.164,0.127,0.25,0.188c0.125,0.087,0.249,0.165,0.375,0.25c0.267,0.182,0.535,0.357,0.813,0.531
	c0.064,0.039,0.123,0.086,0.188,0.125c0.116,0.07,0.226,0.148,0.344,0.219c0.211,0.123,0.441,0.227,0.656,0.344
	c0.35,0.191,0.7,0.385,1.063,0.563c0.369,0.183,0.744,0.338,1.125,0.5c3.125,1.348,6.641,2.156,10.281,2.156
	c1.896,0,3.838-0.385,5.688-0.969c3.748-0.966,7.146-2.805,10-5.25c0.118-0.094,0.209-0.162,0.313-0.25
	c0.063-0.055,0.127-0.102,0.188-0.156c0.022-0.021,0.04-0.041,0.063-0.063c0.121-0.109,0.226-0.232,0.344-0.344
	C46.98,38.598,50,32.152,50,25C50,11.205,38.795,0,25,0z"/>
<path fill="#FFFFFF" d="M25,2c12.715,0,23,10.286,23,23c0,6.311-2.52,12.034-6.625,16.188c-1.947-1.471-4.271-2.269-6.25-3.063
	c-2.167-0.87-3.71-1.729-4.188-2.875c-0.106-1.301-0.103-2.328-0.096-3.563c0.131-0.144,0.316-0.24,0.438-0.406
	c0.273-0.377,0.537-0.842,0.781-1.344c0.426-0.875,0.731-1.926,0.905-2.971c0.313-0.16,0.648-0.199,0.906-0.529
	c0.481-0.615,0.821-1.492,0.969-2.721c0.132-1.094-0.233-1.816-0.688-2.375c0.488-1.586,1.111-4.15,0.906-6.781
	c-0.11-1.436-0.479-2.87-1.344-4.063c-0.79-1.092-2.07-1.891-3.688-2.219c-1.051-1.362-2.943-1.875-5.125-1.875h-0.031
	c-4.672,0.086-7.655,1.975-8.938,4.906c-1.222,2.792-0.948,6.32-0.063,9.969c-0.477,0.557-0.854,1.308-0.719,2.438
	c0.148,1.229,0.487,2.104,0.969,2.721c0.265,0.338,0.615,0.369,0.938,0.529c0.177,1.047,0.469,2.098,0.906,2.971
	c0.251,0.502,0.533,0.967,0.813,1.344c0.124,0.166,0.307,0.266,0.438,0.406c0.006,1.231,0.013,2.262-0.094,3.563
	c-0.476,1.143-2.022,1.977-4.188,2.844c-1.995,0.799-4.348,1.611-6.313,3.094C4.519,37.034,2,31.311,2,25C2,12.286,12.286,2,25,2z"
	/>
<path fill="#DFF1C8" d="M24.906,8.406c0.013,0,0.019,0,0.031,0c2.014,0.007,3.316,0.598,3.688,1.25l0.25,0.406l0.469,0.063
	c1.391,0.193,2.188,0.754,2.75,1.531c0.563,0.777,0.875,1.863,0.969,3.063c0.188,2.399-0.502,5.192-0.938,6.5L31.875,22l0.688,0.406
	c-0.043-0.026,0.381,0.263,0.281,1.094c-0.117,0.982-0.352,1.489-0.531,1.719c-0.179,0.23-0.271,0.218-0.279,0.219L31.188,25.5
	l-0.094,0.813c-0.093,0.865-0.439,1.922-0.844,2.75c-0.201,0.414-0.41,0.779-0.594,1.031s-0.377,0.395-0.281,0.344l-0.531,0.281
	v0.594c0,1.447-0.059,2.638,0.094,4.313v0.125L29,35.875c0.824,2.217,3.098,3.18,5.375,4.094c1.868,0.75,3.753,1.547,5.313,2.594
	c-0.328,0.265-0.449,0.418-0.938,0.75c-0.988,0.672-2.279,1.459-3.719,2.188c-1.402,0.71-2.951,1.356-4.531,1.845
	c-0.041,0.012-0.084,0.021-0.125,0.03C28.648,47.787,26.854,48,25,48c-2.19,0-4.306-0.305-6.313-0.875
	c-3.213-0.994-6.115-2.613-8.344-4.563c1.571-1.047,3.468-1.845,5.344-2.596c2.277-0.91,4.552-1.883,5.375-4.094l0.031-0.125
	l0.031-0.125c0.152-1.678,0.094-2.864,0.094-4.313v-0.595l-0.531-0.28c0.091,0.049-0.124-0.09-0.313-0.345
	c-0.189-0.254-0.417-0.616-0.625-1.03c-0.415-0.828-0.752-1.895-0.844-2.75L18.813,25.5l-0.844-0.063
	c-0.008,0-0.102,0.011-0.281-0.219s-0.413-0.737-0.531-1.719c-0.1-0.831,0.324-1.12,0.281-1.094L18.094,22l-0.188-0.719
	c-0.941-3.623-1.104-6.918-0.125-9.156C18.758,9.893,20.748,8.491,24.906,8.406z"/>
</svg>
