<?xml version="1.0" encoding="utf-8"?>
<!-- Generator: Adobe Illustrator 16.0.3, SVG Export Plug-In . SVG Version: 6.00 Build 0)  -->
<!DOCTYPE svg PUBLIC "-//W3C//DTD SVG 1.1//EN" "http://www.w3.org/Graphics/SVG/1.1/DTD/svg11.dtd">
<svg version="1.1" id="Layer_1" xmlns="http://www.w3.org/2000/svg" xmlns:xlink="http://www.w3.org/1999/xlink" x="0px" y="0px"
	 width="120px" height="120px" viewBox="0 0 120 120" enable-background="new 0 0 120 120" xml:space="preserve">
<path fill="#0D519B" d="M104.54,66.1c0.271-2,0.46-4.023,0.46-6.1c0-24.855-20.145-45-45-45c-2.075,0-4.1,0.19-6.1,0.46
	C49.315,12.045,43.655,10,37.5,10C22.31,10,10,22.31,10,37.5c0,6.155,2.045,11.815,5.46,16.4C15.19,55.9,15,57.925,15,60
	c0,24.855,20.145,45,45,45c2.075,0,4.1-0.189,6.1-0.46c4.586,3.415,10.246,5.46,16.4,5.46c15.189,0,27.5-12.311,27.5-27.5
	C110,76.346,107.955,70.686,104.54,66.1z"/>
<path fill="#C2D3E6" d="M60,90c-16.695,0-26.285-8.75-26.285-17.34c0-4.381,4.585-5.78,6.42-5.78c4.24,0,5.65,3.46,6.42,5.045
	C50.86,80.779,55,79.615,59.08,80c3.605,0.34,12.064-1.25,12.064-7.43c0-0.59,0.931-4.61-6.375-6.605
	c-4.666-1.275-12.896-2.84-19.666-5.445C38.735,58.07,35,53.02,35,46.515C35,43.255,36.665,30,59.22,30
	c15.049,0,23.075,7.71,23.075,14.495c0,1.56-0.595,2.935-1.79,4.175c-1.194,1.24-4.565,3.05-8.255,0.69
	c-0.93-0.595-1.695-1.835-2.615-3.44C68.529,43.9,66.721,40,58.395,40c-8.08,0-10.32,3.855-10.32,5.46
	c0,5.4,10.305,6.535,13.075,7.25c10.104,2.605,23.854,5,23.854,18.625C85,86.98,68.725,90,60,90z"/>
</svg>
