<?xml version="1.0" encoding="utf-8"?>
<!-- Generator: Adobe Illustrator 16.0.3, SVG Export Plug-In . SVG Version: 6.00 Build 0)  -->
<!DOCTYPE svg PUBLIC "-//W3C//DTD SVG 1.1//EN" "http://www.w3.org/Graphics/SVG/1.1/DTD/svg11.dtd">
<svg version="1.1" id="Layer_1" xmlns="http://www.w3.org/2000/svg" xmlns:xlink="http://www.w3.org/1999/xlink" x="0px" y="0px"
	 width="50px" height="50px" viewBox="0 0 50 50" enable-background="new 0 0 50 50" xml:space="preserve">
<path fill="#81C625" d="M25,0C11.205,0,0,11.205,0,25c0,7.979,3.763,15.077,9.594,19.656c0.285,0.225,0.58,0.443,0.875,0.656
	c0.084,0.063,0.164,0.127,0.25,0.188c0.125,0.087,0.249,0.165,0.375,0.25c0.267,0.182,0.535,0.357,0.813,0.531
	c0.064,0.039,0.123,0.086,0.188,0.125c0.116,0.07,0.226,0.148,0.344,0.219c0.211,0.123,0.441,0.227,0.656,0.344
	c0.35,0.191,0.7,0.385,1.063,0.563c0.369,0.183,0.744,0.338,1.125,0.5c3.125,1.348,6.641,2.156,10.281,2.156
	c1.896,0,3.838-0.387,5.688-0.971c3.748-0.966,7.146-2.805,10-5.25c0.118-0.094,0.209-0.16,0.313-0.25
	c0.063-0.055,0.127-0.102,0.188-0.154c0.022-0.021,0.04-0.041,0.063-0.063c0.121-0.107,0.226-0.23,0.344-0.346
	C46.98,38.598,50,32.152,50,25C50,11.205,38.795,0,25,0z"/>
<circle fill="#FFFFFF" cx="25" cy="25" r="23"/>
<path fill="#DFF1C8" d="M25.001,2c10.17,0,19.006,6.557,21.97,16.281c0.159,0.527-0.16,1.058-0.688,1.219
	c-0.529,0.164-1.091-0.129-1.25-0.656c-0.75-2.463-1.921-4.676-3.406-6.625c-1.735,0.945-3.735,1.717-5.938,2.313
	c0.32,1.229,0.605,2.516,0.813,3.875c0.084,0.546-0.299,1.072-0.844,1.156c-0.548,0.082-1.074-0.298-1.156-0.844
	c-0.199-1.303-0.44-2.546-0.75-3.719c-2.438,0.516-5.06,0.814-7.75,0.875v2.688h-2v-2.688c-2.697-0.061-5.316-0.359-7.75-0.875
	c-0.309,1.173-0.551,2.416-0.75,3.719c-0.076,0.495-0.516,0.844-1,0.844c-0.051,0-0.105,0.008-0.156,0
	c-0.547-0.083-0.928-0.61-0.844-1.156c0.207-1.359,0.49-2.648,0.813-3.875c-2.201-0.596-4.201-1.365-5.938-2.313
	C6.89,14.169,5.72,16.38,4.97,18.844c-0.131,0.432-0.541,0.718-0.969,0.719c-0.098,0-0.184-0.033-0.281-0.063
	c-0.529-0.161-0.85-0.691-0.688-1.219C5.993,8.557,14.829,2,25.001,2z"/>
<path fill="#FFFFFF" d="M24.001,4.125c-2.889,0.638-5.531,3.976-7.188,8.938c2.252,0.465,4.684,0.754,7.188,0.813V4.125z"/>
<path fill="#FFFFFF" d="M26.001,4.125v9.75c2.498-0.059,4.899-0.348,7.156-0.813C31.499,8.102,28.889,4.763,26.001,4.125z"/>
<path fill="#FFFFFF" d="M19.188,4.844c-3.672,1.046-6.934,3.057-9.5,5.813c1.531,0.796,3.273,1.453,5.188,1.969
	C15.954,9.34,17.435,6.681,19.188,4.844z"/>
<path fill="#FFFFFF" d="M30.813,4.844c1.756,1.836,3.234,4.497,4.313,7.781c1.912-0.516,3.653-1.174,5.188-1.969
	C37.747,7.9,34.484,5.889,30.813,4.844z"/>
<g>
	<path fill="#DFF1C8" d="M25,48C14.83,48,5.994,41.443,3.031,31.719c-0.16-0.527,0.16-1.058,0.688-1.219
		c0.529-0.164,1.09,0.129,1.25,0.656c0.75,2.463,1.92,4.676,3.406,6.625c1.736-0.945,3.736-1.717,5.938-2.313
		c-0.32-1.229-0.605-2.516-0.813-3.875c-0.084-0.546,0.299-1.071,0.844-1.155c0.547-0.082,1.074,0.297,1.156,0.844
		c0.199,1.303,0.441,2.546,0.75,3.719c2.438-0.516,5.059-0.814,7.75-0.875v-2.688h2v2.688c2.697,0.061,5.316,0.359,7.75,0.875
		c0.309-1.173,0.551-2.416,0.75-3.719c0.076-0.495,0.516-0.844,1-0.844c0.051,0,0.105-0.008,0.156,0
		c0.547,0.082,0.928,0.609,0.844,1.155c-0.207,1.359-0.49,2.648-0.813,3.876c2.201,0.596,4.201,1.364,5.938,2.313
		c1.486-1.95,2.656-4.161,3.406-6.625c0.131-0.432,0.541-0.719,0.969-0.719c0.098,0,0.184,0.033,0.281,0.063
		c0.529,0.161,0.85,0.691,0.688,1.219C44.008,41.443,35.172,48,25,48z"/>
	<path fill="#FFFFFF" d="M26,45.875c2.889-0.639,5.531-3.977,7.188-8.938c-2.252-0.465-4.684-0.754-7.188-0.813V45.875z"/>
	<path fill="#FFFFFF" d="M24,45.875v-9.75c-2.498,0.059-4.9,0.348-7.156,0.813C18.502,41.898,21.113,45.236,24,45.875z"/>
	<path fill="#FFFFFF" d="M30.813,45.156c3.672-1.047,6.935-3.057,9.5-5.813c-1.53-0.796-3.272-1.452-5.188-1.969
		C34.047,40.66,32.566,43.318,30.813,45.156z"/>
	<path fill="#FFFFFF" d="M19.188,45.156c-1.756-1.836-3.234-4.497-4.313-7.781c-1.912,0.516-3.654,1.174-5.188,1.969
		C12.254,42.1,15.516,44.111,19.188,45.156z"/>
</g>
<path fill="#81C625" d="M43.369,17.64c0,0.229-0.186,0.415-0.416,0.415h-2.246L30.521,39.732c-0.066,0.143-0.211,0.238-0.373,0.238
	h-0.004c-0.158,0-0.305-0.09-0.373-0.229l-4.833-9.585l-5.215,9.598c-0.075,0.137-0.208,0.215-0.377,0.219
	c-0.156-0.007-0.298-0.098-0.365-0.238L8.686,18.055H6.354c-0.23,0-0.416-0.187-0.416-0.415v-1.099c0-0.23,0.186-0.416,0.416-0.416
	h8.307c0.229,0,0.415,0.186,0.415,0.416v1.098c0,0.23-0.186,0.416-0.415,0.416h-1.789l7.107,16.395l3.698-6.909l-4.688-9.482H17.86
	c-0.229,0-0.415-0.186-0.415-0.417v-1.098c0-0.231,0.186-0.417,0.415-0.417h6.145c0.229,0,0.416,0.186,0.416,0.417v1.097
	c0,0.229-0.187,0.415-0.416,0.415h-1.082l2.696,5.901l3.212-5.901h-1.97c-0.231,0-0.416-0.186-0.416-0.415v-1.097
	c0-0.231,0.185-0.417,0.416-0.417h5.969c0.23,0,0.416,0.186,0.416,0.417v1.097c0,0.229-0.186,0.415-0.416,0.415h-1.309l-4.688,8.514
	l3.819,7.854l7.369-16.367h-2.334c-0.229,0-0.416-0.186-0.416-0.415v-1.097c0-0.231,0.187-0.417,0.416-0.417h7.264
	c0.232,0,0.418,0.188,0.418,0.417V17.64z"/>
</svg>
