<?xml version="1.0" encoding="utf-8"?>
<!-- Generator: Adobe Illustrator 16.0.3, SVG Export Plug-In . SVG Version: 6.00 Build 0)  -->
<!DOCTYPE svg PUBLIC "-//W3C//DTD SVG 1.1//EN" "http://www.w3.org/Graphics/SVG/1.1/DTD/svg11.dtd">
<svg version="1.1" id="Layer_1" xmlns="http://www.w3.org/2000/svg" xmlns:xlink="http://www.w3.org/1999/xlink" x="0px" y="0px"
	 width="120px" height="120px" viewBox="0 0 120 120" enable-background="new 0 0 120 120" xml:space="preserve">
<path fill="#81C625" d="M60,0C26.891,0,0,26.892,0,60c0,16.918,7.015,32.212,18.3,43.125c0,0.025,0,0.05,0,0.075
	c0.255,0.505,0.68,0.903,1.2,1.125c0.04,0.036,0.11,0.038,0.15,0.075c0.025,0,0.05,0,0.075,0C30.378,114.064,44.501,120,60,120
	c15.52,0,29.691-5.912,40.35-15.6c0.025-0.025,0.051-0.051,0.075-0.075c0.548-0.207,1.001-0.607,1.275-1.125c0-0.025,0-0.05,0-0.075
	C112.984,92.212,120,76.918,120,60C120,26.892,93.109,0,60,0z"/>
<path fill="#FFFFFF" d="M60,4.8c30.516,0,55.2,24.686,55.2,55.2c0,15.143-6.046,28.883-15.9,38.85c-4.661-3.523-10.241-5.42-15-7.35
	c-5.271-2.137-9.063-4.238-10.2-7.05c0-0.062,0.002-0.161,0-0.226c4.186-0.543,8.172-1.238,11.025-2.324
	c1.727-0.658,3.186-1.392,4.35-2.325c1.166-0.937,2.176-2.222,2.176-3.976c0.018-0.681-0.256-1.334-0.75-1.802
	c-0.291-0.263-0.855-1.28-1.198-3.073c-0.345-1.793-0.536-4.213-0.603-6.977c-0.127-5.524,0.129-12.436-0.225-19.2
	c-0.354-6.764-1.238-13.431-4.125-18.675c-2.793-5.075-7.947-8.567-15.075-8.55c-2.292-1.598-5.409-2.7-9.45-2.7
	c-0.05-0.001-0.1-0.001-0.15,0c-9.719,0.699-16.445,4.622-20.625,10.2c-4.18,5.579-5.915,12.569-6.75,19.5
	c-0.835,6.93-0.732,13.876-0.975,19.425c-0.122,2.773-0.366,5.244-0.75,7.05c-0.384,1.808-0.929,2.854-1.35,3.228
	c-0.521,0.453-0.822,1.107-0.825,1.8c0,1.71,0.964,3.341,2.175,4.35c1.211,1.011,2.654,1.626,4.35,2.175
	c2.779,0.899,6.62,1.355,10.575,1.875c-0.011,0.088,0.014,0.129,0,0.228c-1.137,2.813-4.93,4.911-10.2,7.05
	c-4.758,1.932-10.339,3.824-15,7.352C10.846,88.883,4.8,75.143,4.8,60C4.8,29.485,29.485,4.8,60,4.8z"/>
<path fill="#DFF1C8" d="M60.225,19.425c0.057,0,0.093,0,0.15,0c3.521,0.036,6.15,1.201,7.2,2.1c0.466,0.375,1.054,0.562,1.649,0.525
	c6.053-0.214,9.088,2.086,11.323,6.15c2.237,4.063,3.188,10.109,3.525,16.575c0.337,6.466,0.091,13.287,0.225,19.05
	c0.067,2.882,0.242,5.534,0.677,7.8c0.297,1.555,0.83,2.896,1.573,4.125c-0.063,0.068,0.058-0.029-0.073,0.075
	C85.92,76.27,84.823,76.857,83.4,77.4c-2.85,1.084-7.084,2.084-12.075,2.55c-1.321,0.101-2.313,1.253-2.212,2.575
	c0.007,0.092,0.02,0.184,0.037,0.272c0.189,0.959,0.225,1.683,0.225,2.399c0.001,0.281,0.052,0.562,0.15,0.824
	c2.025,5.306,7.498,7.681,12.975,9.899c4.557,1.849,9.355,3.649,13.125,6.226C86.012,110.285,73.598,115.2,60,115.2
	c-13.598,0-26.011-4.915-35.625-13.05c3.769-2.576,8.569-4.377,13.125-6.228c5.476-2.221,10.947-4.596,12.975-9.897
	c0.064-0.146,0.115-0.297,0.15-0.45c0.261-1.568,0.225-2.505,0.225-3.226c0.009-1.219-0.893-2.248-2.1-2.399
	c-4.995-0.595-9.197-1.292-11.925-2.175c-1.364-0.441-2.322-0.973-2.775-1.353c-0.19-0.157-0.168-0.147-0.225-0.226
	c0.891-1.297,1.519-2.754,1.875-4.426c0.487-2.293,0.699-4.92,0.825-7.801c0.252-5.761,0.19-12.54,0.975-19.05
	c0.785-6.509,2.455-12.644,5.85-17.175C46.723,23.249,51.689,20.076,60.225,19.425z"/>
</svg>
