<?xml version="1.0" encoding="utf-8"?>
<!DOCTYPE svg PUBLIC "-//W3C//DTD SVG 1.1//EN" "http://www.w3.org/Graphics/SVG/1.1/DTD/svg11.dtd">
<svg version="1.1" id="Layer_1" xmlns="http://www.w3.org/2000/svg" xmlns:xlink="http://www.w3.org/1999/xlink" x="0px" y="0px"
	 width="120px" height="120px" viewBox="0 0 120 120" enable-background="new 0 0 120 120" xml:space="preserve">
<path fill="#A0A0A0" d="M50.4,7.2C27.84,7.2,9.6,25.44,9.6,48c0,22.561,18.24,40.8,40.8,40.8c8.05,0,15.508-2.362,21.825-6.375
	L101.7,111.9l10.2-10.2L82.8,72.675c5.232-6.859,8.4-15.367,8.4-24.675C91.2,25.44,72.96,7.2,50.4,7.2z M50.4,16.8
	c17.28,0,31.2,13.92,31.2,31.2c0,17.279-13.92,31.2-31.2,31.2S19.2,65.279,19.2,48C19.2,30.72,33.12,16.8,50.4,16.8z"/>
</svg>
