<?xml version="1.0" encoding="utf-8"?>
<!-- Generator: Adobe Illustrator 16.0.3, SVG Export Plug-In . SVG Version: 6.00 Build 0)  -->
<!DOCTYPE svg PUBLIC "-//W3C//DTD SVG 1.1//EN" "http://www.w3.org/Graphics/SVG/1.1/DTD/svg11.dtd">
<svg version="1.1" id="Layer_1" xmlns="http://www.w3.org/2000/svg" xmlns:xlink="http://www.w3.org/1999/xlink" x="0px" y="0px"
	 width="50px" height="50px" viewBox="0 0 50 50" enable-background="new 0 0 50 50" xml:space="preserve">
<path fill="#81C625" d="M25,0C11.205,0,0,11.205,0,25c0,7.979,3.763,15.077,9.594,19.656c0.285,0.225,0.58,0.443,0.875,0.656
	c0.084,0.063,0.164,0.127,0.25,0.188c0.125,0.087,0.249,0.165,0.375,0.25c0.267,0.182,0.535,0.357,0.813,0.531
	c0.064,0.039,0.123,0.086,0.188,0.125c0.116,0.07,0.226,0.148,0.344,0.219c0.211,0.123,0.441,0.227,0.656,0.344
	c0.35,0.191,0.7,0.385,1.063,0.563c0.369,0.183,0.744,0.338,1.125,0.5c3.125,1.348,6.641,2.156,10.281,2.156
	c1.896,0,3.838-0.387,5.688-0.971c3.748-0.966,7.146-2.805,10-5.25c0.118-0.094,0.209-0.16,0.313-0.25
	c0.063-0.055,0.127-0.102,0.188-0.154c0.022-0.021,0.04-0.041,0.063-0.063c0.121-0.107,0.226-0.23,0.344-0.346
	C46.98,38.598,50,32.152,50,25C50,11.205,38.795,0,25,0z"/>
<circle fill="#FFFFFF" cx="25" cy="25" r="23"/>
<path fill="#81C625" d="M33.136,8.48c-0.427,0-0.837,0.152-1.157,0.474l-2.211,2.21l-1.342-1.369
	c-0.32-0.32-0.758-0.474-1.185-0.474s-0.837,0.154-1.158,0.474L6.112,29.768c-0.641,0.643-0.641,1.701,0,2.342l3.552,3.527
	c0.272,0.272,0.694,0.326,1.027,0.131c0.619-0.373,1.41-0.302,1.947,0.236c0.538,0.537,0.608,1.328,0.237,1.947
	c-0.196,0.331-0.142,0.755,0.131,1.025l3.526,3.553c0.641,0.642,1.701,0.642,2.341,0l2.184-2.211l1.368,1.369
	c0.641,0.641,1.702,0.641,2.343,0L44.74,21.716c0.641-0.641,0.641-1.701,0-2.342l-3.553-3.526c-0.271-0.274-0.693-0.328-1.026-0.131
	c-0.618,0.371-1.41,0.3-1.947-0.238s-0.606-1.328-0.235-1.947c0.194-0.332,0.144-0.754-0.133-1.026L34.32,8.954
	C34,8.633,33.563,8.48,33.136,8.48z"/>
<path fill="#DFF1C8" d="M33.136,10.164h0.025l3.211,3.236c-0.356,1.133-0.235,2.37,0.657,3.263c0.894,0.893,2.132,1.013,3.264,0.658
	l3.236,3.21v0.026L23.61,40.477h-0.027l-1.315-1.342l14.104-14.104l0.264,0.263c0.326,0.334,0.862,0.34,1.196,0.013
	c0.335-0.326,0.34-0.862,0.014-1.197l0,0l-0.263-0.262l1.263-1.291c0.641-0.641,0.643-1.701,0-2.342l-3.553-3.525
	c-0.271-0.274-0.693-0.329-1.025-0.132c-0.619,0.372-1.41,0.301-1.947-0.237c-0.535-0.538-0.606-1.329-0.235-1.947
	c0.194-0.332,0.144-0.755-0.132-1.026l-0.975-1L33.136,10.164z"/>
<path fill="#DFF1C8" d="M27.241,11.005h0.026l1.656,1.658c0.08,0.279,0.301,0.498,0.578,0.579l0.975,1
	c-0.354,1.132-0.234,2.369,0.657,3.263c0.896,0.893,2.132,1.014,3.265,0.658l3.234,3.236l-1.71,1.736
	c-0.021,0.017-0.034,0.034-0.053,0.053l-0.079,0.052c-0.039,0.041-0.074,0.084-0.104,0.131L20.742,38.268
	c-0.27,0.088-0.477,0.305-0.552,0.578l-2.474,2.475l-3.236-3.236c0.356-1.133,0.235-2.369-0.658-3.264
	c-0.893-0.893-2.129-1.014-3.263-0.656l-3.236-3.211V30.93l15.683-15.686l0.711,0.263l0.631-0.447l0.025-0.763L24.19,14.06
	L27.241,11.005z"/>
<polygon fill="#81C625" points="25.268,15.611 24.663,16.032 24.637,16.795 24.795,17.031 25.4,17.637 26.109,17.874 26.716,17.453 
	26.741,16.691 26.583,16.454 25.979,15.848 "/>
<polygon fill="#81C625" points="27.662,18.005 27.031,18.426 27.005,19.189 27.189,19.426 27.768,20.005 28.479,20.269 
	29.109,19.821 29.136,19.058 28.951,18.821 28.373,18.242 "/>
<polygon fill="#81C625" points="30.031,20.374 29.425,20.795 29.4,21.559 29.559,21.796 30.162,22.4 30.873,22.637 31.477,22.217 
	31.504,21.454 31.346,21.217 30.741,20.611 "/>
<polygon fill="#81C625" points="32.425,22.768 31.793,23.189 31.768,23.952 31.952,24.188 32.531,24.794 33.242,25.031 
	33.874,24.583 33.898,23.848 33.741,23.584 33.137,23.005 "/>
</svg>
