<?xml version="1.0" encoding="utf-8"?>
<!-- Generator: Adobe Illustrator 16.0.3, SVG Export Plug-In . SVG Version: 6.00 Build 0)  -->
<!DOCTYPE svg PUBLIC "-//W3C//DTD SVG 1.1//EN" "http://www.w3.org/Graphics/SVG/1.1/DTD/svg11.dtd">
<svg version="1.1" id="Layer_1" xmlns="http://www.w3.org/2000/svg" xmlns:xlink="http://www.w3.org/1999/xlink" x="0px" y="0px"
	 width="120px" height="120px" viewBox="0 0 120 120" enable-background="new 0 0 120 120" xml:space="preserve">
<path fill="#0D519B" d="M82.574,10.25c-0.164,0.03-0.321,0.069-0.479,0.12c-1.781,0.399-3.031,2-2.986,3.823v7.646H44.702
	c-6.336,0-11.469,5.137-11.469,11.469V98.3c0,6.331,5.133,11.47,11.469,11.47h30.584c6.336,0,11.47-5.139,11.47-11.47V33.905
	c0.016-0.198,0.016-0.4,0-0.598V21.838v-7.646c0.074-2.109-1.574-3.883-3.686-3.958C82.902,10.229,82.738,10.235,82.574,10.25z"/>
<path fill="#C2D3E6" d="M42.791,29.484h34.407c1.053,0,1.911,0.856,1.911,1.911v1.912c-0.008,0.119-0.008,0.239,0,0.358v24.491
	c0,1.055-0.858,1.912-1.911,1.912H42.791c-1.055,0-1.912-0.857-1.912-1.912V31.394C40.879,30.341,41.736,29.484,42.791,29.484z"/>
</svg>
