<?xml version="1.0" encoding="utf-8"?>
<!-- Generator: Adobe Illustrator 16.0.3, SVG Export Plug-In . SVG Version: 6.00 Build 0)  -->
<!DOCTYPE svg PUBLIC "-//W3C//DTD SVG 1.1//EN" "http://www.w3.org/Graphics/SVG/1.1/DTD/svg11.dtd">
<svg version="1.1" id="Layer_1" xmlns="http://www.w3.org/2000/svg" xmlns:xlink="http://www.w3.org/1999/xlink" x="0px" y="0px"
	 width="50px" height="50px" viewBox="0 0 50 50" enable-background="new 0 0 50 50" xml:space="preserve">
<path fill="#81C625" d="M25,0C11.205,0,0,11.205,0,25c0,7.979,3.763,15.077,9.594,19.656c0.285,0.225,0.58,0.443,0.875,0.656
	c0.084,0.063,0.164,0.127,0.25,0.188c0.125,0.087,0.249,0.165,0.375,0.25c0.267,0.182,0.535,0.357,0.813,0.531
	c0.064,0.039,0.123,0.086,0.188,0.125c0.116,0.07,0.226,0.148,0.344,0.219c0.211,0.123,0.441,0.227,0.656,0.344
	c0.35,0.191,0.7,0.385,1.063,0.563c0.369,0.182,0.744,0.337,1.125,0.5c3.125,1.347,6.641,2.156,10.281,2.156
	c1.896,0,3.838-0.385,5.688-0.97c3.748-0.966,7.146-2.805,10-5.25c0.118-0.094,0.209-0.161,0.313-0.25
	c0.063-0.055,0.127-0.102,0.188-0.155c0.022-0.021,0.04-0.041,0.063-0.063c0.121-0.108,0.226-0.231,0.344-0.345
	C46.98,38.598,50,32.152,50,25C50,11.205,38.795,0,25,0z"/>
<circle fill="#FFFFFF" cx="25" cy="25" r="23"/>
</svg>
