<?xml version="1.0" encoding="utf-8"?>
<!-- Generator: Adobe Illustrator 16.0.3, SVG Export Plug-In . SVG Version: 6.00 Build 0)  -->
<!DOCTYPE svg PUBLIC "-//W3C//DTD SVG 1.1//EN" "http://www.w3.org/Graphics/SVG/1.1/DTD/svg11.dtd">
<svg version="1.1" id="Layer_1" xmlns="http://www.w3.org/2000/svg" xmlns:xlink="http://www.w3.org/1999/xlink" x="0px" y="0px"
	 width="120px" height="120px" viewBox="0 0 120 120" enable-background="new 0 0 120 120" xml:space="preserve">
<path fill="#0D519B" d="M90.521,12.615c-2.232-0.011-4.406,0.771-6.103,2.465l-3.755,3.872l24.762,24.878l3.756-3.873
	c3.389-3.388,3.424-8.893,0-12.322L96.742,15.196C95.029,13.48,92.756,12.626,90.521,12.615z M76.439,22.355l-5.866,5.633
	l25.817,25.817l5.984-5.516L76.439,22.355z M66.816,32.095L26.215,72.348c-0.934,0.477-1.618,1.33-1.879,2.346l-8.684,29.455
	c-0.594,1.935,0.49,3.983,2.422,4.578c0.703,0.217,1.453,0.217,2.155,0l29.455-8.685c1.364-0.206,2.497-1.155,2.934-2.465
	l40.017-39.665l-5.516-5.516l-41.072,41.19L29.5,98.398l-3.52-3.521l5.046-17.251l40.721-40.603L66.816,32.095z M75.736,41.131
	l-41.19,41.309l5.985,1.291l0.821,5.516L82.66,48.055L75.736,41.131z"/>
</svg>
