<?xml version="1.0" encoding="utf-8"?>
<!-- Generator: Adobe Illustrator 16.0.3, SVG Export Plug-In . SVG Version: 6.00 Build 0)  -->
<!DOCTYPE svg PUBLIC "-//W3C//DTD SVG 1.1//EN" "http://www.w3.org/Graphics/SVG/1.1/DTD/svg11.dtd">
<svg version="1.1" id="Layer_1" xmlns="http://www.w3.org/2000/svg" xmlns:xlink="http://www.w3.org/1999/xlink" x="0px" y="0px"
	 width="120px" height="120px" viewBox="0 0 120 120" enable-background="new 0 0 120 120" xml:space="preserve">
<path fill="#81C625" d="M76.18,54.235c0.002-0.017,0.006-0.03,0.012-0.047c0.246-1.147,0.382-2.338,0.382-3.563
	c0-9.301-7.568-16.865-16.869-16.865c-9.298,0-16.864,7.564-16.864,16.865c0,1.222,0.135,2.412,0.384,3.561
	c0.394,1.828,1.083,3.547,2.019,5.102c2.953,4.911,8.33,8.198,14.461,8.198h0.019l0.013-3.375l4.534,2.746l4.793,2.899l-1.364,0.812
	l-8.009,4.757l0.014-3.214c-6.609-0.004-12.53-3.004-16.472-7.711c-0.001,0.015-0.007,0.029-0.008,0.045
	c-0.248,1.15-0.383,2.344-0.383,3.563c0,9.301,7.566,16.865,16.864,16.865c9.301,0,16.869-7.564,16.869-16.865
	c0-1.219-0.14-2.412-0.388-3.561c-0.393-1.828-1.082-3.547-2.018-5.102c-2.953-4.91-8.33-8.201-14.465-8.201h-0.015l-0.017,3.377
	l-4.53-2.744l-4.793-2.901l1.365-0.811l8.008-4.757l-0.015,3.215C66.316,46.523,72.236,49.525,76.18,54.235"/>
<path fill="#00529C" d="M59.679,22.361c-20.669,0-37.427,16.757-37.427,37.426c0,20.671,16.758,37.427,37.427,37.427
	c20.67,0,37.428-16.756,37.428-37.427C97.105,39.118,80.35,22.361,59.679,22.361 M79.363,59.345
	c1.174,2.653,1.828,5.583,1.828,8.664c0,11.847-9.639,21.485-21.488,21.485c-11.846,0-21.483-9.641-21.483-21.485
	c0-3.081,0.65-6.011,1.824-8.664c0.006-0.011,0.01-0.018,0.012-0.027c-0.002-0.012-0.006-0.019-0.012-0.03
	c-1.174-2.651-1.824-5.582-1.824-8.663c0-11.846,9.637-21.485,21.483-21.485c11.85,0,21.488,9.639,21.488,21.485
	c0,3.081-0.654,6.012-1.828,8.663c-0.006,0.011-0.008,0.018-0.012,0.033C79.355,59.327,79.357,59.334,79.363,59.345"/>
</svg>
